<svg xmlns="http://www.w3.org/2000/svg" width="1200" height="760" viewBox="0 0 1200 760" role="img" aria-labelledby="title desc">
  <title id="title">Editorial blog system screenshot placeholder</title>
  <desc id="desc">A warm editorial blog layout mockup with cards and reading columns.</desc>
  <rect width="1200" height="760" fill="#f4efe7"/>
  <rect x="92" y="70" width="1016" height="620" rx="10" fill="#fffaf1" stroke="#d8c8b6" stroke-width="2"/>
  <rect x="146" y="130" width="360" height="44" rx="4" fill="#3f352d"/>
  <rect x="146" y="208" width="560" height="14" rx="7" fill="#b7a38e"/>
  <rect x="146" y="244" width="430" height="14" rx="7" fill="#d8c8b6"/>
  <rect x="146" y="330" width="408" height="236" rx="8" fill="#f4efe7" stroke="#d8c8b6"/>
  <rect x="190" y="382" width="246" height="22" rx="4" fill="#7c5a3d"/>
  <rect x="190" y="436" width="294" height="10" rx="5" fill="#c9b59d"/>
  <rect x="190" y="466" width="226" height="10" rx="5" fill="#d8c8b6"/>
  <rect x="620" y="330" width="334" height="236" rx="8" fill="#f4efe7" stroke="#d8c8b6"/>
  <rect x="664" y="382" width="190" height="22" rx="4" fill="#7c5a3d"/>
  <rect x="664" y="436" width="234" height="10" rx="5" fill="#c9b59d"/>
  <rect x="664" y="466" width="164" height="10" rx="5" fill="#d8c8b6"/>
</svg>
