<svg xmlns="http://www.w3.org/2000/svg" width="1200" height="760" viewBox="0 0 1200 760" role="img" aria-labelledby="title desc">
  <title id="title">Transparent Object Pose Lab screenshot placeholder</title>
  <desc id="desc">A warm paper style interface mockup for a 3D pose estimation project.</desc>
  <rect width="1200" height="760" fill="#f4efe7"/>
  <rect x="70" y="68" width="1060" height="624" rx="12" fill="#fffaf1" stroke="#d8c8b6" stroke-width="2"/>
  <rect x="110" y="108" width="660" height="430" rx="8" fill="#eee2d2"/>
  <path d="M310 368 462 282 636 355 480 455Z" fill="#d8c2a8" stroke="#7c5a3d" stroke-width="5"/>
  <path d="M462 282 462 158 636 230 636 355Z" fill="#eadbc8" stroke="#7c5a3d" stroke-width="5"/>
  <path d="M636 230 778 310 636 355Z" fill="#c9aa86" stroke="#7c5a3d" stroke-width="5"/>
  <circle cx="462" cy="282" r="8" fill="#7c5a3d"/>
  <circle cx="636" cy="355" r="8" fill="#7c5a3d"/>
  <rect x="820" y="118" width="250" height="18" rx="9" fill="#7c5a3d"/>
  <rect x="820" y="166" width="210" height="12" rx="6" fill="#c9b59d"/>
  <rect x="820" y="200" width="250" height="12" rx="6" fill="#d8c8b6"/>
  <rect x="820" y="234" width="185" height="12" rx="6" fill="#d8c8b6"/>
  <rect x="820" y="306" width="250" height="142" rx="8" fill="#f4efe7" stroke="#d8c8b6"/>
  <rect x="850" y="340" width="126" height="10" rx="5" fill="#a98a6d"/>
  <rect x="850" y="374" width="170" height="10" rx="5" fill="#c9b59d"/>
  <rect x="850" y="408" width="94" height="10" rx="5" fill="#c9b59d"/>
  <rect x="110" y="584" width="208" height="42" rx="21" fill="#7c5a3d"/>
  <rect x="350" y="584" width="160" height="42" rx="21" fill="none" stroke="#7c5a3d" stroke-width="2"/>
</svg>
